<svg width="38" height="38" viewBox="0 0 38 38" fill="none" xmlns="http://www.w3.org/2000/svg">
<path d="M31.5044 12.4331L23.1919 4.12063C23.025 3.95355 22.7986 3.85958 22.5625 3.85938H8.3125C7.76135 3.85938 7.23277 4.07832 6.84304 4.46804C6.45332 4.85777 6.23438 5.38635 6.23438 5.9375V32.0625C6.23438 32.6137 6.45332 33.1422 6.84304 33.532C7.23277 33.9217 7.76135 34.1406 8.3125 34.1406H29.6875C30.2387 34.1406 30.7672 33.9217 31.157 33.532C31.5467 33.1422 31.7656 32.6137 31.7656 32.0625V13.0625C31.7654 12.8264 31.6714 12.6 31.5044 12.4331ZM23.4531 6.89937L28.7256 12.1719H23.4531V6.89937ZM29.6875 32.3594H8.3125C8.23376 32.3594 8.15825 32.3281 8.10258 32.2724C8.0469 32.2167 8.01562 32.1412 8.01562 32.0625V5.9375C8.01562 5.85876 8.0469 5.78325 8.10258 5.72758C8.15825 5.6719 8.23376 5.64062 8.3125 5.64062H21.6719V13.0625C21.6719 13.2987 21.7657 13.5252 21.9327 13.6923C22.0998 13.8593 22.3263 13.9531 22.5625 13.9531H29.9844V32.0625C29.9844 32.1412 29.9531 32.2167 29.8974 32.2724C29.8417 32.3281 29.7662 32.3594 29.6875 32.3594ZM24.6406 20.1875C24.6406 20.4237 24.5468 20.6502 24.3798 20.8173C24.2127 20.9843 23.9862 21.0781 23.75 21.0781H14.25C14.0138 21.0781 13.7873 20.9843 13.6202 20.8173C13.4532 20.6502 13.3594 20.4237 13.3594 20.1875C13.3594 19.9513 13.4532 19.7248 13.6202 19.5577C13.7873 19.3907 14.0138 19.2969 14.25 19.2969H23.75C23.9862 19.2969 24.2127 19.3907 24.3798 19.5577C24.5468 19.7248 24.6406 19.9513 24.6406 20.1875ZM24.6406 24.9375C24.6406 25.1737 24.5468 25.4002 24.3798 25.5673C24.2127 25.7343 23.9862 25.8281 23.75 25.8281H14.25C14.0138 25.8281 13.7873 25.7343 13.6202 25.5673C13.4532 25.4002 13.3594 25.1737 13.3594 24.9375C13.3594 24.7013 13.4532 24.4748 13.6202 24.3077C13.7873 24.1407 14.0138 24.0469 14.25 24.0469H23.75C23.9862 24.0469 24.2127 24.1407 24.3798 24.3077C24.5468 24.4748 24.6406 24.7013 24.6406 24.9375Z" fill="#5A7080"/>
</svg>
