<svg width="379" height="379" viewBox="0 0 379 379" fill="none" xmlns="http://www.w3.org/2000/svg">
<path d="M175.835 0.368827C222.929 -2.54033 269.354 11.8494 304.899 40.3736C348.011 74.7757 374.442 123.522 378.358 175.853C380.6 202.859 376.955 230.005 367.636 255.701C366.187 259.6 364.344 263.253 362.746 267.054C359.885 273.851 356.796 281.188 352.805 287.51C350.379 291.413 346.927 295.111 344.478 298.968C335.482 313.128 323.53 324.745 310.692 336.004C306.644 339.554 301.184 342.891 296.691 346.074C291.665 349.632 286.308 353.173 280.875 356.225C257.11 369.341 230.239 376.973 202.563 378.467C202.16 378.505 201.756 378.539 201.352 378.568C154.655 381.693 108.503 367.771 72.9167 339.824C58.1035 328.215 45.0307 314.614 34.163 299.573C29.6441 293.321 25.9778 285.474 22.2558 278.764C19.3296 273.49 16.4778 267.917 13.8913 262.483C-4.76758 214.729 -5.16288 162.369 15.9524 115.186C17.5311 111.657 18.8244 107.924 20.6191 104.444C32.8558 80.7241 50.7758 58.381 72.2233 41.0086C101.049 17.5028 137.413 3.23958 175.835 0.368827ZM31.0397 273.062C37.5161 287.102 47.3027 299.903 57.717 311.68C56.4175 304.064 57.7474 298.016 62.88 291.76C74.359 277.768 82.4318 267.495 86.5313 250.024C72.5517 223.645 67.073 208.117 69.4815 178.847C73.0935 175.718 75.9781 177.907 76.3229 181.907C77.0756 190.634 77.4583 199.305 79.2428 207.939C81.5073 218.927 85.4162 229.575 90.8595 239.577C93.1454 243.839 97.4546 250.266 101.838 253.047C104.419 254.685 111.398 255.549 114.704 255.861C121.001 256.513 127.373 256.231 133.573 255.027C132.888 249.718 131.804 243.801 131.245 238.648C130.664 232.861 130.419 227.049 130.512 221.239C130.667 210.698 130.466 199.888 133.537 189.663C134.457 186.598 135.406 180.042 140.107 180.398C140.855 180.452 141.533 180.821 141.945 181.397C143.517 183.599 140.568 196.459 140.132 199.632C138.288 213.074 139.487 226.587 139.184 240C140.898 237.682 146.087 229.869 149.335 231.22C150.063 232.905 148.983 233.881 148.498 235.539C146.955 240.813 146.215 246.173 147.196 251.604C147.393 252.692 148.292 254.051 148.316 255.214C148.161 257.558 147.98 260.108 147.753 262.436C147.374 266.327 147.492 270.62 146.812 274.414C147.809 273.278 149.442 271.279 150.712 270.532C156.217 267.292 156.296 275.518 156.389 278.569C156.61 285.795 156.942 293.082 159.179 300.079C161.073 305.871 164.688 311.332 167.386 316.827C169.8 322.015 171.949 327.277 174.345 332.474C176.423 336.986 181.759 337.041 186.287 337.182C194.174 337.425 202.148 337.083 210.027 337.277L214.532 337.242C210.293 330.446 207.347 330.219 201.17 326.252C197.762 324.064 198.166 315.04 198.15 311.055C197.512 309.443 197.434 287.261 197.993 284.156C198.349 282.181 199.225 276.826 200.547 275.044C205.331 268.593 211.676 263.407 217.133 257.296C222.464 251.328 227.04 245.434 232.224 239.424C234.494 236.795 237.237 233.482 240.014 231.395C242.435 233.433 239.35 243.382 240.877 247.364C242.723 252.176 243.645 259.304 245.626 264.173C249.761 274.339 259.528 282.501 266.255 291.043C268.284 290.224 270.646 289.211 272.682 290.501C276.904 296.222 264.724 302.312 262.068 306.453C258.259 312.394 258.265 318.574 253.03 323.874C258.565 325.287 263.83 326.838 269.3 324.622C282.264 319.369 290.44 312.635 296.081 300.679C303.41 285.142 297.652 271.438 294.652 255.961C292.773 246.269 295.084 231.79 299.422 222.944C297.073 224.258 293.545 226.792 291.237 227.758C279.142 232.823 269.306 242.266 257.787 247.755C258.428 244.902 257.779 239.176 259.627 237.652C263.183 234.716 269.311 231.486 273.38 228.807C291.584 216.815 309.407 207.139 321.335 188.918C323.888 185.018 325.914 180.525 328.329 176.433C331.81 175.927 332.162 174.49 333.054 171.455C337.161 157.488 336.126 138.782 327.709 126.166C325.31 122.418 320.15 116.937 317.041 113.414C315.308 111.608 311.419 107.733 309.987 105.838C313.344 102.217 318.786 97.7842 323.917 96.7495C325.185 97.0534 326.091 97.1195 326.956 97.9791C327.872 100.327 322.277 103.192 320.254 105.105C323.376 108.576 326.288 113.074 329.267 116.762C332.706 109.733 337.859 96.7286 327.313 92.5538C318.705 89.1457 312.652 98.4384 306.191 102.081L305.826 101.981C301.835 100.869 298.004 97.9976 294.825 96.9629C285.33 93.8738 268.561 92.9865 259.305 97.13C256.573 98.1392 253.548 102.653 250.321 101.569C243.319 99.2191 236.392 88.8256 227.87 92.8786C217.348 97.8828 222.988 111.734 226.203 119.024C228.556 114.525 231.248 108.926 234.786 105.198L234.461 104.985C232.589 103.743 228.257 100.724 228.951 98.3236C233.044 95.1116 245.08 102.899 244.872 106.294C243.671 108.627 237.453 112.891 235.331 115.788C225.09 129.772 216.376 151.825 224.134 168.298C224.102 165.705 223.606 160.313 224.844 158.337C228.556 155.893 229.174 158.444 229.474 161.337C230.565 171.904 233.213 179.933 238.96 189.082C240.081 190.868 240.383 195.777 240.723 198.073C233.567 194.447 233.069 192.693 228.146 186.931C226.883 185.452 223.755 183.153 222.362 181.677C219.059 178.179 216.133 172.911 214.86 168.538C211.595 157.326 212.752 145.781 216.07 134.715C216.815 132.229 218.658 126.068 219.04 123.763C215.007 114.674 210.805 103.815 215.37 94.3019C222.098 80.2868 240.004 83.9919 249.888 92.7046C252.736 91.4529 255.503 90.1897 258.585 89.474C253.448 87.4347 248.128 85.8513 242.847 84.1635C229.801 79.9945 216.344 75.793 202.649 80.7868C198.155 82.4259 194.016 84.9581 190.14 87.582C176.653 96.7135 167.197 108.156 158.078 120.92C155.716 124.225 154.021 128.066 151.49 131.226C150.524 132.432 149.611 133.072 147.915 133.068C147.051 133.065 145.808 132.984 145.01 132.671C144.323 132.402 143.909 131.842 143.746 131.187C142.561 126.428 156.202 108.239 159.445 104.228C160.94 102.382 162.269 100.901 164.367 99.5822C152.33 100.222 138.829 98.1635 126.823 97.6357C63.485 94.8506 37.8735 150.786 31.4501 199.723C29.6997 213.058 33.2473 225.624 34.4509 238.816C35.5977 251.202 34.4029 261.159 31.0397 273.062ZM155.783 314.23C151.177 305.742 146.378 291.915 147.315 282.438C145.957 283.898 142.013 289.906 139.919 286.396C137.071 281.621 137.327 268.57 138.573 263.263C131.061 264.281 117.162 264.471 109.599 263.378C109.652 263.724 117.675 274.21 118.644 275.903C123.744 284.59 127.023 293.551 129.1 303.245C129.614 305.645 131.476 316.323 133.297 317.397C137.672 319.978 147.397 318.222 152.465 318.427C154.088 318.493 156.57 318.378 158.275 318.369C157.497 317.038 156.643 315.491 155.783 314.23ZM341.998 99.0822C341.849 103.291 341.471 106.539 340.49 110.645C339.761 113.692 336.794 119.49 337.014 122.179C337.268 125.297 339.803 131.053 341.014 134.293C344.741 144.553 345.621 155.503 343.579 166.154C340.12 184.123 331.614 191.319 319.897 205.283C315.677 210.315 312.048 213.486 309.982 219.792C306.783 229.554 303.152 239.691 303.47 250C303.694 257.306 306.773 264.37 308.117 271.331C310.986 286.192 309.035 298.605 299.949 311.353C297.337 315.126 294.511 319.372 290.76 322.297C282.753 328.541 273.293 335.297 262.197 334.565C251.501 333.859 237.937 331.172 242.875 318.371L243.131 318.158C244.643 316.911 247.147 315.786 248.002 314.807C250.681 311.738 251.829 306.488 253.662 302.947C254.797 300.757 257.497 297.721 259.153 295.746C245.883 285.551 235.112 271.172 233.52 255.017C233.398 253.864 233.318 252.709 233.28 251.551C230.956 255.265 223.259 264.141 220.343 266.834C209.301 276.633 205.543 284.531 206.719 298.681C207.1 303.283 206.266 312.128 208.019 316.189C211.96 325.324 224.522 326.577 224.608 339.376C224.618 340.923 226.463 345.028 223.116 345.454C208.47 346.254 193.334 346.136 178.673 345.552C169.372 345.181 163.825 334.755 162.631 327.505C162.603 327.329 162.579 327.152 162.559 326.975C152.425 327.599 134.881 329.607 127.286 323.098C120.688 317.444 120.914 311.088 119.534 303.589C118.887 300.209 118.034 296.864 116.98 293.571C113.96 282.903 107.898 274.593 100.195 266.216C97.7603 263.57 94.6445 261.233 92.2323 258.508C90.9706 265.821 88.936 270.371 85.0145 276.963C79.1582 286.809 67.5807 296.667 65.9616 308.058C65.5474 310.968 67.6211 318.927 68.1579 322.359C73.4181 328.395 79.8983 332.908 86.6589 337.457C111.862 354.413 138.914 364.842 170.058 368.06C214.738 372.825 259.652 361.125 294.957 335.525C336.047 305.371 361.937 256.576 366.971 208.786C370.418 176.069 363.88 141.526 349.088 111.625C348.121 109.666 343.185 99.9139 341.998 99.0822ZM335.275 87.741C326.567 75.1631 314.995 63.655 303.482 53.1977C299.479 49.5624 294.019 46.5339 289.747 43.1383C271.231 28.4172 246.359 19.2553 222.831 13.9453C181.18 4.54597 134.359 14.1837 98.7946 35.6149C56.108 61.3386 27.0184 103.477 16.0863 148.942C10.1504 173.627 8.57552 196.617 13.2207 221.631C15.7478 237.097 19.586 248.413 25.6241 263.014C26.6724 255.58 26.7797 248.059 25.9437 240.603C24.7919 230.37 22.1712 221.376 22.1813 210.915C22.194 197.702 24.2677 184.917 27.905 172.124C34.8248 146.47 44.5785 123.182 67.8396 106.357C91.9835 88.8928 112.966 87.9648 142.551 90.4031C150.036 91.0203 159.371 92.1884 166.551 90.2581C172.954 88.5356 177.748 85.559 182.874 81.7867C195.387 72.5775 207.03 68.6961 223.154 70.3607C234.053 71.4848 245.101 75.6932 255.228 79.425C260.267 81.2809 265.594 83.2274 270.498 85.4581C273.159 86.3211 276.732 86.509 279.562 86.6042C289.957 86.9545 296.293 87.4486 305.492 92.4505C312.973 88.7443 316.304 83.355 326.347 84.7122C329.722 85.3792 332.235 86.2098 335.275 87.741Z" fill="url(#paint0_linear_726_219)"/>
<path d="M251.155 140.448C253.89 132.187 268.451 133.678 271.475 142.883C271.325 144.872 271.101 146.659 271.442 148.638C267.336 157.696 263.683 167.439 264.146 177.398C264.36 182.011 266.319 186.197 268.661 190.203C273.392 189.235 275.823 188.481 279.907 186.116C275.957 183.79 271.223 181.822 270.174 177.137C269.028 172.024 271.683 166.475 277.892 165.898C282.398 165.48 289.58 165.125 293.386 167.673C295.293 168.96 296.528 170.92 296.792 173.08C297.397 177.652 294.393 180.63 290.909 183.383C289.122 184.47 287.351 185.592 285.463 186.52L285.884 186.64C288.678 187.459 293.258 189.95 295.514 189.894C296.26 189.32 296.024 189.569 296.29 188.545C301.996 178.182 297.44 159.471 292.263 149.301C292.792 147.63 293.103 144.53 292.462 142.922C296.052 131.092 313.57 135.826 312.017 140.7C305.219 143.467 306.6 145.414 299.368 145.216C300.679 149.866 302.832 154.198 304.271 158.669C305.93 163.833 307.604 173.479 306.931 178.743C317.172 170.939 319.388 161.898 321.83 150.496C322.008 149.663 323.057 149.063 323.883 148.841C327.391 150.112 326.98 156.421 326.691 159.24C325.732 168.566 320.736 178.194 312.211 183.634C307.95 186.354 305.307 188.886 303.205 193.252C298.487 203.05 286.035 210.493 274.497 205.787C264.734 202.582 262.744 192.772 256.953 187.035C250.261 180.405 240.494 177.754 237.323 167.565C236.217 164.01 233.564 155.955 235.475 152.372L236.032 152.288C242.374 156.965 243.014 164.849 247.893 170.516C250.872 173.976 253.829 175.666 257.643 178.221C257.077 169.054 259.879 159.378 262.793 150.685C263.182 149.525 264.604 146.529 263.92 145.798C260.059 146.536 251.591 145.067 251.155 140.448ZM271.61 196.073C276.632 199.089 278.272 200.476 284.32 199.744C287.802 198.911 289.984 198.005 292.913 195.979C288.569 195.258 284.647 194.35 280.198 194.671C276.949 194.882 274.766 195.35 271.61 196.073Z" fill="#C8622A"/>
<path d="M251.154 140.448C253.366 142.193 260.692 145.446 263.919 145.798C260.058 146.536 251.59 145.067 251.154 140.448Z" fill="#C8622A"/>
<path d="M194.62 135.294C195.297 135.348 196.013 135.575 196.558 135.952C197.94 136.906 198.248 138.344 198.492 139.824C198.851 142.002 198.661 144.306 198.622 146.505C198.511 152.638 197.866 159.135 199.03 165.191C200.205 171.307 203.19 176.985 206.737 182.215C208.654 185.043 210.796 187.698 213.342 190.083C223.154 199.277 251.2 216.806 253.437 228.819C253.731 230.399 254.505 234.081 253.521 235.348C252.545 235.564 252.887 235.518 251.732 234.929C247.271 232.567 243.347 227.634 239.833 224.17C232.337 216.781 226.564 210.587 217.512 204.742C210.414 199.42 204.444 193.975 199.333 186.845C189.251 172.779 189.881 155.453 191.435 139.387C191.627 137.399 192.937 136.262 194.62 135.294Z" fill="#C8622A"/>
<path d="M244.516 195.111C252.971 194.176 267.52 211.271 265.159 219.584C254.877 215.877 253.861 211.444 247.481 203.683C245.399 201.152 243.275 198.37 244.516 195.111Z" fill="#C8622A"/>
<path d="M276.549 139.518C283.333 135.601 288.28 139.197 291.793 143.041C292.016 143.003 292.239 142.963 292.463 142.924C293.103 144.531 292.792 147.631 292.263 149.302C288.547 144.5 284.709 142.04 278.185 143.436C276.422 143.639 276.183 143.615 274.62 142.813L276.549 139.518Z" fill="#C8622A"/>
<path d="M271.474 142.884C271.694 144.018 271.577 145.244 272.989 145.27C273.849 144.52 274.111 143.801 274.619 142.813C276.183 143.615 276.421 143.639 278.184 143.436C274.804 144.811 273.231 145.614 271.442 148.639C271.101 146.66 271.325 144.874 271.474 142.884Z" fill="#C8622A"/>
<path d="M198.149 311.056L198.401 310.66C198.554 315.267 198.991 324.015 203.667 326.379C207.522 328.326 214.145 331.961 215.809 335.931C215.746 336.985 215.958 336.544 215.144 337.295C214.034 337.688 211.216 337.802 210.175 337.444L210.026 337.278L214.531 337.243C210.293 330.447 207.346 330.221 201.169 326.253C197.762 324.066 198.166 315.041 198.149 311.056Z" fill="#C8622A"/>
<path d="M317.042 113.415C320.087 114.247 325.925 120.693 327.557 123.392C328.276 124.585 328.12 124.94 327.711 126.167C325.312 122.419 320.152 116.938 317.042 113.415Z" fill="#C8622A"/>
<defs>
<linearGradient id="paint0_linear_726_219" x1="15.1658" y1="264.115" x2="351.522" y2="93.4341" gradientUnits="userSpaceOnUse">
<stop offset="1" stop-color="#C8622A"/>
</linearGradient>
</defs>
</svg>
