<svg width="40" height="40" viewBox="0 0 40 40" fill="none" xmlns="http://www.w3.org/2000/svg">
<path d="M33.75 9.0625H27.1875V7.5C27.1875 6.58832 26.8253 5.71398 26.1807 5.06932C25.536 4.42466 24.6617 4.0625 23.75 4.0625H16.25C15.3383 4.0625 14.464 4.42466 13.8193 5.06932C13.1747 5.71398 12.8125 6.58832 12.8125 7.5V9.0625H6.25C5.66984 9.0625 5.11344 9.29297 4.7032 9.7032C4.29297 10.1134 4.0625 10.6698 4.0625 11.25V31.25C4.0625 31.8302 4.29297 32.3866 4.7032 32.7968C5.11344 33.207 5.66984 33.4375 6.25 33.4375H33.75C34.3302 33.4375 34.8866 33.207 35.2968 32.7968C35.707 32.3866 35.9375 31.8302 35.9375 31.25V11.25C35.9375 10.6698 35.707 10.1134 35.2968 9.7032C34.8866 9.29297 34.3302 9.0625 33.75 9.0625ZM14.6875 7.5C14.6875 7.0856 14.8521 6.68817 15.1451 6.39515C15.4382 6.10212 15.8356 5.9375 16.25 5.9375H23.75C24.1644 5.9375 24.5618 6.10212 24.8549 6.39515C25.1479 6.68817 25.3125 7.0856 25.3125 7.5V9.0625H14.6875V7.5ZM34.0625 31.25C34.0625 31.3329 34.0296 31.4124 33.971 31.471C33.9124 31.5296 33.8329 31.5625 33.75 31.5625H6.25C6.16712 31.5625 6.08763 31.5296 6.02903 31.471C5.97042 31.4124 5.9375 31.3329 5.9375 31.25V11.25C5.9375 11.1671 5.97042 11.0876 6.02903 11.029C6.08763 10.9704 6.16712 10.9375 6.25 10.9375H33.75C33.8329 10.9375 33.9124 10.9704 33.971 11.029C34.0296 11.0876 34.0625 11.1671 34.0625 11.25V31.25ZM24.6875 21.25C24.6875 21.4986 24.5887 21.7371 24.4129 21.9129C24.2371 22.0887 23.9986 22.1875 23.75 22.1875H20.9375V25C20.9375 25.2486 20.8387 25.4871 20.6629 25.6629C20.4871 25.8387 20.2486 25.9375 20 25.9375C19.7514 25.9375 19.5129 25.8387 19.3371 25.6629C19.1613 25.4871 19.0625 25.2486 19.0625 25V22.1875H16.25C16.0014 22.1875 15.7629 22.0887 15.5871 21.9129C15.4113 21.7371 15.3125 21.4986 15.3125 21.25C15.3125 21.0014 15.4113 20.7629 15.5871 20.5871C15.7629 20.4113 16.0014 20.3125 16.25 20.3125H19.0625V17.5C19.0625 17.2514 19.1613 17.0129 19.3371 16.8371C19.5129 16.6613 19.7514 16.5625 20 16.5625C20.2486 16.5625 20.4871 16.6613 20.6629 16.8371C20.8387 17.0129 20.9375 17.2514 20.9375 17.5V20.3125H23.75C23.9986 20.3125 24.2371 20.4113 24.4129 20.5871C24.5887 20.7629 24.6875 21.0014 24.6875 21.25Z" fill="#E8B02E"/>
</svg>
