<svg viewBox="0 0 900 380" width="900" height="380" fill="none" xmlns="http://www.w3.org/2000/svg">
<style>
.aimcan{transform-origin:126.7px 316.1px;animation:tilt 7.5s ease-in-out infinite;}
@keyframes tilt{0%,2.67%{transform:rotate(0)} 9.33%,29.33%{transform:rotate(10deg)} 36.00%,100%{transform:rotate(0)}}
.lines{transform-origin:122px 84px;opacity:0;animation:lines 7.5s linear infinite;}
@keyframes lines{0%,10.00%{opacity:0;transform:scale(.2)} 11.33%,28.00%{opacity:1;transform:scale(1)} 30.00%,100%{opacity:0;transform:scale(1.1)}}
.sprayOn{opacity:0;animation:son 7.5s linear infinite;}
@keyframes son{0%,10.67%{opacity:0} 10.93%,28.00%{opacity:1} 28.67%,100%{opacity:0}}
.drop{fill:#D69353;offset-path:path("M174 161 L626 178");animation:drop .55s linear infinite;}
@keyframes drop{0%{offset-distance:0%;opacity:1}90%{opacity:1}100%{offset-distance:100%;opacity:0}}
.st{fill:#D69353;transform-box:fill-box;transform-origin:center;opacity:0}
.st0{animation:st0 7.5s ease-out infinite;}@keyframes st0{0%,13.33%{opacity:0;transform:scale(.2)} 17.33%{opacity:1;transform:scale(1.1)} 20.00%,93.33%{opacity:1;transform:scale(1)} 98.67%,100%{opacity:0;transform:scale(1)}}
.st1{animation:st1 7.5s ease-out infinite;}@keyframes st1{0%,15.47%{opacity:0;transform:scale(.2)} 19.47%{opacity:1;transform:scale(1.1)} 22.13%,93.33%{opacity:1;transform:scale(1)} 98.67%,100%{opacity:0;transform:scale(1)}}
.st2{animation:st2 7.5s ease-out infinite;}@keyframes st2{0%,17.60%{opacity:0;transform:scale(.2)} 21.60%{opacity:1;transform:scale(1.1)} 24.27%,93.33%{opacity:1;transform:scale(1)} 98.67%,100%{opacity:0;transform:scale(1)}}
.st3{animation:st3 7.5s ease-out infinite;}@keyframes st3{0%,19.73%{opacity:0;transform:scale(.2)} 23.73%{opacity:1;transform:scale(1.1)} 26.40%,93.33%{opacity:1;transform:scale(1)} 98.67%,100%{opacity:0;transform:scale(1)}}
.st4{animation:st4 7.5s ease-out infinite;}@keyframes st4{0%,21.87%{opacity:0;transform:scale(.2)} 25.87%{opacity:1;transform:scale(1.1)} 28.53%,93.33%{opacity:1;transform:scale(1)} 98.67%,100%{opacity:0;transform:scale(1)}}
.st5{animation:st5 7.5s ease-out infinite;}@keyframes st5{0%,24.00%{opacity:0;transform:scale(.2)} 28.00%{opacity:1;transform:scale(1.1)} 30.67%,93.33%{opacity:1;transform:scale(1)} 98.67%,100%{opacity:0;transform:scale(1)}}
.st6{animation:st6 7.5s ease-out infinite;}@keyframes st6{0%,26.13%{opacity:0;transform:scale(.2)} 30.13%{opacity:1;transform:scale(1.1)} 32.80%,93.33%{opacity:1;transform:scale(1)} 98.67%,100%{opacity:0;transform:scale(1)}}

.burn{opacity:0;animation:burn 7.5s ease-in-out infinite;}
@keyframes burn{0%,29.33%{opacity:0} 40.00%,93.33%{opacity:.55} 98.67%,100%{opacity:0}}
.arm{animation:shake 7.5s linear infinite;}
@keyframes shake{0%,34.67%{transform:none} 36.00%{transform:translate(4px,-3px)} 37.33%{transform:translate(-4px,2px)} 38.67%{transform:translate(4px,2px)} 40.00%{transform:translate(-3px,-2px)} 41.33%{transform:translate(3px,1px)} 42.67%{transform:translate(-2px,0)} 44.00%,58.67%{transform:none} 60.00%{transform:translate(3px,-2px)} 61.33%{transform:translate(-3px,2px)} 62.67%{transform:translate(2px,1px)} 64.00%,100%{transform:none}}
.heat{opacity:0;animation:heatv 7.5s linear infinite;}
@keyframes heatv{0%,33.33%{opacity:0} 38.67%,93.33%{opacity:1} 98.67%,100%{opacity:0}}
.ht{animation:ht 1.2s ease-out infinite;}
@keyframes ht{0%{transform:translateY(12px);opacity:0}30%{opacity:1}100%{transform:translateY(-30px);opacity:0}}
.spark{transform-origin:626px 180px;opacity:0;animation:spark 7.5s ease-out infinite;}
@keyframes spark{0%,33.33%{opacity:0;transform:scale(.6)} 36.00%{opacity:1;transform:scale(1)} 42.67%,100%{opacity:0;transform:scale(1.3)}}
.no{transform-origin:250px 100px;opacity:0;animation:no 7.5s ease-out infinite;}
@keyframes no{0%,32.00%{opacity:0;transform:scale(.3)} 35.33%{opacity:1;transform:scale(1.15)} 37.33%,93.33%{opacity:1;transform:scale(1)} 98.67%,100%{opacity:0;transform:scale(1)}}
.mqp{offset-rotate:0deg;animation-name:fly;animation-timing-function:linear;animation-iteration-count:infinite;}
@keyframes fly{from{offset-distance:0%}to{offset-distance:100%}}
.wing{animation:flap .06s linear infinite alternate;}
@keyframes flap{from{transform:scaleY(1)}to{transform:scaleY(.25)}}
@media (prefers-reduced-motion:reduce){*{animation:none!important}.st,.no,.heat{opacity:1!important}.burn{opacity:.55!important}.mqp{offset-distance:30%}}
</style>
<line x1="20" y1="322" x2="880" y2="322" stroke="#E3B68A" stroke-width="6" stroke-linecap="round"/>
<g class="heat"><path class="ht" style="animation-delay:0s" d="M552 190 c7 -9 -7 -18 0 -27 s-7 -18 0 -27" stroke="#C4462E" stroke-width="5" stroke-linecap="round"/><path class="ht" style="animation-delay:0.35s" d="M574 128 c7 -9 -7 -18 0 -27 s-7 -18 0 -27" stroke="#C4462E" stroke-width="5" stroke-linecap="round"/><path class="ht" style="animation-delay:0.7s" d="M716 120 c7 -9 -7 -18 0 -27 s-7 -18 0 -27" stroke="#C4462E" stroke-width="5" stroke-linecap="round"/><path class="ht" style="animation-delay:0.15s" d="M738 190 c7 -9 -7 -18 0 -27 s-7 -18 0 -27" stroke="#C4462E" stroke-width="5" stroke-linecap="round"/><path class="ht" style="animation-delay:0.5s" d="M560 262 c7 -9 -7 -18 0 -27 s-7 -18 0 -27" stroke="#C4462E" stroke-width="5" stroke-linecap="round"/><path class="ht" style="animation-delay:0.85s" d="M730 262 c7 -9 -7 -18 0 -27 s-7 -18 0 -27" stroke="#C4462E" stroke-width="5" stroke-linecap="round"/></g>
<g class="arm">
<g fill="#A8653D" stroke="#A8653D" stroke-width="10" stroke-linejoin="round"><path d="M606 226 C600 280 596 330 590 392 L704 392 C696 330 686 280 678 226 Z"/><path d="M590 142 C592 128 690 124 696 140 C702 172 692 212 678 236 L606 236 C594 214 584 174 590 142 Z"/><rect x="-11.5" y="-74" width="23" height="85.5" rx="11.5" transform="translate(603 146) rotate(-24)" /><rect x="-12.0" y="-86" width="24" height="98.0" rx="12.0" transform="translate(630 136) rotate(-7)" /><rect x="-11.5" y="-80" width="23" height="91.5" rx="11.5" transform="translate(657 138) rotate(9)" /><rect x="-10.0" y="-60" width="20" height="70.0" rx="10.0" transform="translate(683 148) rotate(27)" /><rect x="-13.5" y="-66" width="27" height="79.5" rx="13.5" transform="translate(598 204) rotate(-64)" /></g><g fill="#E9BE93"><path d="M606 226 C600 280 596 330 590 392 L704 392 C696 330 686 280 678 226 Z"/><path d="M590 142 C592 128 690 124 696 140 C702 172 692 212 678 236 L606 236 C594 214 584 174 590 142 Z"/><rect x="-11.5" y="-74" width="23" height="85.5" rx="11.5" transform="translate(603 146) rotate(-24)" /><rect x="-12.0" y="-86" width="24" height="98.0" rx="12.0" transform="translate(630 136) rotate(-7)" /><rect x="-11.5" y="-80" width="23" height="91.5" rx="11.5" transform="translate(657 138) rotate(9)" /><rect x="-10.0" y="-60" width="20" height="70.0" rx="10.0" transform="translate(683 148) rotate(27)" /><rect x="-13.5" y="-66" width="27" height="79.5" rx="13.5" transform="translate(598 204) rotate(-64)" /></g><path d="M676 150 C690 176 684 212 672 234 L650 234 C664 212 670 180 662 152 Z" fill="#DDAA7C" opacity=".6"/><path d="M640 238 C634 290 632 340 630 392 L700 392 C694 330 686 280 678 232 Z" fill="#DDAA7C" opacity=".45"/><rect x="-7.4" y="-69.9" width="14.7" height="17.9" rx="6.9" transform="translate(603 146) rotate(-24)" fill="#F8E9D8" stroke="#A8653D" stroke-width="1.6" stroke-opacity=".7"/><rect x="-7.7" y="-81.7" width="15.4" height="18.7" rx="7.2" transform="translate(630 136) rotate(-7)" fill="#F8E9D8" stroke="#A8653D" stroke-width="1.6" stroke-opacity=".7"/><rect x="-7.4" y="-75.9" width="14.7" height="17.9" rx="6.9" transform="translate(657 138) rotate(9)" fill="#F8E9D8" stroke="#A8653D" stroke-width="1.6" stroke-opacity=".7"/><rect x="-6.4" y="-56.4" width="12.8" height="15.6" rx="6.0" transform="translate(683 148) rotate(27)" fill="#F8E9D8" stroke="#A8653D" stroke-width="1.6" stroke-opacity=".7"/><rect x="-8.6" y="-61.1" width="17.3" height="21.1" rx="8.1" transform="translate(598 204) rotate(-64)" fill="#F8E9D8" stroke="#A8653D" stroke-width="1.6" stroke-opacity=".7"/><g stroke="#A8653D" stroke-width="2.2" stroke-linecap="round" fill="none" opacity=".55"><path d="M-6.4 -5.9 q6.4 -3.7 12.9 0" transform="translate(603 146) rotate(-24)"/><path d="M-6.4 -37.0 q6.4 -3.7 12.9 0" transform="translate(603 146) rotate(-24)"/><path d="M-6.7 -6.9 q6.7 -3.8 13.4 0" transform="translate(630 136) rotate(-7)"/><path d="M-6.7 -43.0 q6.7 -3.8 13.4 0" transform="translate(630 136) rotate(-7)"/><path d="M-6.4 -6.4 q6.4 -3.7 12.9 0" transform="translate(657 138) rotate(9)"/><path d="M-6.4 -40.0 q6.4 -3.7 12.9 0" transform="translate(657 138) rotate(9)"/><path d="M-5.6 -4.8 q5.6 -3.2 11.2 0" transform="translate(683 148) rotate(27)"/><path d="M-5.6 -30.0 q5.6 -3.2 11.2 0" transform="translate(683 148) rotate(27)"/><path d="M-7.6 -5.3 q7.6 -4.3 15.1 0" transform="translate(598 204) rotate(-64)"/><path d="M-7.6 -33.0 q7.6 -4.3 15.1 0" transform="translate(598 204) rotate(-64)"/><path d="M616 158 q4 30 2 58 M640 152 q2 34 0 66 M662 156 q-2 30 -6 58"/></g>
<circle class="st st0" cx="630" cy="180" r="10"/><circle class="st st1" cx="612" cy="158" r="6"/><circle class="st st2" cx="662" cy="202" r="8"/><circle class="st st3" cx="646" cy="150" r="6"/><circle class="st st4" cx="648" cy="262" r="7"/><circle class="st st5" cx="622" cy="292" r="6"/><circle class="st st6" cx="600" cy="110" r="5"/>
<rect class="burn" x="500" y="30" width="260" height="370" fill="#C4462E" clip-path="url(#handClip)"/>
<rect x="572" y="306" width="150" height="100" rx="24" fill="#372720" stroke="#E3B68A" stroke-width="6"/>
<path d="M580 318 h134" stroke="#E3B68A" stroke-width="3" stroke-opacity=".6" stroke-linecap="round"/>
</g>
<g class="spark" stroke="#C4462E" stroke-width="5" stroke-linecap="round"><line x1="597" y1="197" x2="581" y2="206"/><line x1="592" y1="177" x2="574" y2="175"/><line x1="598" y1="160" x2="583" y2="150"/><line x1="614" y1="148" x2="608" y2="131"/><line x1="635" y1="147" x2="639" y2="130"/></g>
<g class="mqp" style="offset-path:path('M540 100 a44 26 0 1 0 1 0');animation-duration:1.9s;animation-direction:normal"><g transform="scale(1.3)"><g class="wing"><ellipse cx="-3" cy="-7" rx="8" ry="4" fill="#FFFFFF" stroke="#B46F42" stroke-width="1.5" transform="rotate(-25 -3 -7)"/><ellipse cx="2" cy="-7" rx="7" ry="3.5" fill="#FFFFFF" stroke="#B46F42" stroke-width="1.5" transform="rotate(20 2 -7)"/></g><g stroke="#372720" stroke-width="1.6" stroke-linecap="round"><path d="M-4 1 l-5 7 M0 2 l-2 8 M4 1 l3 8"/><path d="M11 0 l9 3"/></g><ellipse cx="0" cy="0" rx="10" ry="3.6" fill="#372720"/><circle cx="10" cy="-1" r="3.4" fill="#372720"/></g></g><g class="mqp" style="offset-path:path('M700 70 a40 28 0 1 0 1 0');animation-duration:1.4s;animation-direction:reverse"><g transform="scale(1.3)"><g class="wing"><ellipse cx="-3" cy="-7" rx="8" ry="4" fill="#FFFFFF" stroke="#B46F42" stroke-width="1.5" transform="rotate(-25 -3 -7)"/><ellipse cx="2" cy="-7" rx="7" ry="3.5" fill="#FFFFFF" stroke="#B46F42" stroke-width="1.5" transform="rotate(20 2 -7)"/></g><g stroke="#372720" stroke-width="1.6" stroke-linecap="round"><path d="M-4 1 l-5 7 M0 2 l-2 8 M4 1 l3 8"/><path d="M11 0 l9 3"/></g><ellipse cx="0" cy="0" rx="10" ry="3.6" fill="#372720"/><circle cx="10" cy="-1" r="3.4" fill="#372720"/></g></g><g class="mqp" style="offset-path:path('M740 190 a36 30 0 1 0 1 0');animation-duration:1.7s;animation-direction:normal"><g transform="scale(1.3)"><g class="wing"><ellipse cx="-3" cy="-7" rx="8" ry="4" fill="#FFFFFF" stroke="#B46F42" stroke-width="1.5" transform="rotate(-25 -3 -7)"/><ellipse cx="2" cy="-7" rx="7" ry="3.5" fill="#FFFFFF" stroke="#B46F42" stroke-width="1.5" transform="rotate(20 2 -7)"/></g><g stroke="#372720" stroke-width="1.6" stroke-linecap="round"><path d="M-4 1 l-5 7 M0 2 l-2 8 M4 1 l3 8"/><path d="M11 0 l9 3"/></g><ellipse cx="0" cy="0" rx="10" ry="3.6" fill="#372720"/><circle cx="10" cy="-1" r="3.4" fill="#372720"/></g></g><g class="mqp" style="offset-path:path('M530 220 a34 24 0 1 0 1 0');animation-duration:1.2s;animation-direction:reverse"><g transform="scale(1.3)"><g class="wing"><ellipse cx="-3" cy="-7" rx="8" ry="4" fill="#FFFFFF" stroke="#B46F42" stroke-width="1.5" transform="rotate(-25 -3 -7)"/><ellipse cx="2" cy="-7" rx="7" ry="3.5" fill="#FFFFFF" stroke="#B46F42" stroke-width="1.5" transform="rotate(20 2 -7)"/></g><g stroke="#372720" stroke-width="1.6" stroke-linecap="round"><path d="M-4 1 l-5 7 M0 2 l-2 8 M4 1 l3 8"/><path d="M11 0 l9 3"/></g><ellipse cx="0" cy="0" rx="10" ry="3.6" fill="#372720"/><circle cx="10" cy="-1" r="3.4" fill="#372720"/></g></g>
<g class="aimcan">
<g transform="translate(58 112) scale(.52) rotate(14 150 230)">

<path d="M147.132 181.793C158.547 178.389 170.717 175.459 182.324 172.138L215.201 294.812L225.113 331.74C226.8 337.918 229.428 346.03 230.532 352.171L167.554 369.024L146.047 374.794C142.509 375.741 138.018 377.075 134.53 377.817C127.471 380.196 116.679 382.98 109.372 384.568L61.1544 204.764C69.7591 202.552 78.2613 199.957 86.8596 197.727C106.954 192.515 126.998 186.825 147.132 181.793Z" fill="#E3B68A" stroke="#E3B68A" stroke-width="17" stroke-linejoin="round"/>
<path d="M108.704 139.572C112.706 138.122 120.191 136.232 124.571 135.03C129.836 133.586 139.231 130.706 144.373 130.062C161.65 137.103 172.604 147.001 179.943 164.367C180.264 165.129 180.577 165.893 180.882 166.66L131.535 179.859L117.005 183.77C115.526 184.169 111.173 185.435 109.818 185.619C104.745 187.273 97.4493 188.992 92.159 190.373C81.3663 193.186 70.5915 196.066 59.8343 199.013C55.928 180.875 61.804 163.108 73.3119 149.033C75.6138 148.447 77.8775 147.778 80.1545 147.104C89.5781 144.312 99.1807 142.016 108.704 139.572Z" fill="#E3B68A" stroke="#E3B68A" stroke-width="17" stroke-linejoin="round"/>
<path d="M72.501 142.886C71.4495 139.424 68.9989 133.033 71.03 129.765C71.7457 128.637 72.7839 127.75 74.0098 127.22C75.213 126.686 76.7765 126.178 78.0481 125.856C89.2585 123.015 100.413 119.65 111.652 116.938C116.961 116.428 121.436 128.282 119.11 130.396L72.501 142.886Z" fill="#E3B68A" stroke="#E3B68A" stroke-width="17" stroke-linejoin="round"/>
<path d="M89.946 67.9896C92.0545 66.991 96.4983 65.9065 98.8902 65.2681L112.302 61.7069L114.659 70.4457C110.502 72.4285 107.514 74.2757 105.861 78.9047C104.58 82.4983 104.812 86.4579 106.502 89.8781C109.833 96.6582 115.138 97.2613 121.79 97.0053C122.634 100.421 123.514 103.827 124.432 107.223C114.62 109.976 104.758 112.635 94.8805 115.143C92.1981 115.825 82.5411 118.676 80.5034 118.863C79.8264 119.079 79.8575 119.067 79.1435 119.056C79.056 118.928 78.9133 118.734 78.8793 118.59C76.0791 106.681 69.7873 93.735 74.9913 81.6006C77.9354 74.7355 83.1764 70.6852 89.946 67.9896Z" fill="#E3B68A" stroke="#E3B68A" stroke-width="17" stroke-linejoin="round"/>
<path d="M110.849 390.311L158.932 377.422C169.828 374.494 180.671 371.321 191.659 368.744C193.373 369.365 197.746 366.395 199.694 367.291C200.391 368.196 200.239 368.78 200.125 369.85C199.758 373.273 198.691 377.164 195.511 378.995C192.174 380.368 186.867 381.402 183.241 382.347L162.399 387.912L136.717 394.799C132.142 396.03 127.704 397.362 123.06 398.348C115.721 399.907 113.26 396.641 110.849 390.311Z" fill="#E3B68A" stroke="#E3B68A" stroke-width="17" stroke-linejoin="round"/>
<path d="M191.659 368.744C205.229 364.858 218.545 361.457 232.16 357.818C232.591 360.649 233.016 364.878 231.151 367.226C227.712 371.552 219.426 372.839 214.322 374.165C208.069 375.841 201.798 377.451 195.511 378.996C198.691 377.164 199.758 373.273 200.125 369.85C200.24 368.78 200.392 368.197 199.695 367.292C197.747 366.396 193.373 369.365 191.659 368.744Z" fill="#E3B68A" stroke="#E3B68A" stroke-width="17" stroke-linejoin="round"/>
<path d="M111.652 116.937C118.586 115.046 125.764 112.796 132.825 111.681C139.265 110.665 140.4 119.868 141.588 124.381L119.11 130.395C121.435 128.281 116.96 116.428 111.652 116.937Z" fill="#E3B68A" stroke="#E3B68A" stroke-width="17" stroke-linejoin="round"/>
<path d="M115.068 76.7411C115.825 76.6414 115.489 76.5676 116.121 76.9159C116.801 78.689 119.889 89.5111 119.518 91.1402C118.525 91.7215 116.963 91.2381 115.847 90.9911C112.85 89.4288 110.796 86.6205 111.094 83.1388C111.348 80.1617 112.947 78.543 115.068 76.7411Z" fill="#E3B68A" stroke="#E3B68A" stroke-width="17" stroke-linejoin="round"/>
<path d="M147.132 181.793C158.547 178.389 170.717 175.459 182.324 172.138L215.201 294.812L225.113 331.74C226.8 337.918 229.428 346.03 230.532 352.171L167.554 369.024L146.047 374.794C142.509 375.741 138.018 377.075 134.53 377.817C127.471 380.196 116.679 382.98 109.372 384.568L61.1544 204.764C69.7591 202.552 78.2613 199.957 86.8596 197.727C106.954 192.515 126.998 186.825 147.132 181.793Z" fill="url(#paint0_linear_464_3059)"/>
<path d="M147.132 181.792C158.548 178.389 170.717 175.459 182.325 172.138L215.201 294.812L225.113 331.74C226.8 337.918 229.429 346.03 230.532 352.171L167.554 369.024L146.047 374.794C142.51 375.741 138.019 377.074 134.531 377.817C135.736 377.192 139.657 376.223 141.151 375.828L152.675 372.779L197.676 360.619C197.157 356.226 195.806 351.31 194.687 347.007L190.654 331.668L176.942 280.437L159.237 214.534L154.316 196.305C152.974 191.277 151.731 186.223 149.944 181.334C149.01 181.5 148.072 181.653 147.132 181.792Z" fill="#372720"/>
<path d="M108.704 139.572C112.706 138.122 120.191 136.232 124.571 135.03C129.836 133.586 139.231 130.706 144.373 130.062C161.65 137.103 172.604 147.001 179.943 164.367C180.264 165.129 180.577 165.893 180.882 166.66L131.535 179.859L117.005 183.77C115.526 184.169 111.173 185.435 109.818 185.619C104.745 187.273 97.4493 188.992 92.159 190.373C81.3663 193.186 70.5915 196.066 59.8343 199.013C55.928 180.875 61.804 163.108 73.3119 149.033C75.6138 148.447 77.8775 147.778 80.1545 147.104C89.5781 144.312 99.1807 142.016 108.704 139.572Z" fill="url(#paint1_linear_464_3059)"/>
<path d="M108.704 139.573C112.706 138.122 120.191 136.233 124.571 135.031C129.836 133.586 139.231 130.707 144.373 130.063C161.65 137.103 172.604 147.001 179.943 164.368C180.264 165.129 180.577 165.893 180.882 166.661L131.535 179.859L117.005 183.77C115.526 184.17 111.173 185.436 109.818 185.62C110.401 185.098 144.75 176.106 147.852 175.228C147.722 173.412 147.262 172.037 146.63 170.325C143.612 162.149 138.563 154.634 132.294 148.612C127.767 144.264 122.548 140.88 117.392 137.375C114.549 137.951 111.712 139.078 108.704 139.573Z" fill="#372720"/>
<path d="M72.501 142.886C71.4495 139.424 68.9989 133.033 71.03 129.765C71.7457 128.637 72.7839 127.75 74.0098 127.22C75.213 126.686 76.7765 126.178 78.0481 125.856C89.2585 123.015 100.413 119.65 111.652 116.938C116.961 116.428 121.436 128.282 119.11 130.396L72.501 142.886Z" fill="#271F1D"/>
<path d="M89.946 67.9896C92.0545 66.991 96.4983 65.9065 98.8902 65.2681L112.302 61.7069L114.659 70.4457C110.502 72.4285 107.514 74.2757 105.861 78.9047C104.58 82.4983 104.812 86.4579 106.502 89.8781C109.833 96.6582 115.138 97.2613 121.79 97.0053C122.634 100.421 123.514 103.827 124.432 107.223C114.62 109.976 104.758 112.635 94.8805 115.143C92.1981 115.825 82.5411 118.676 80.5034 118.863C79.8264 119.079 79.8575 119.067 79.1435 119.056C79.056 118.928 78.9133 118.734 78.8793 118.59C76.0791 106.681 69.7873 93.735 74.9913 81.6006C77.9354 74.7355 83.1764 70.6852 89.946 67.9896Z" fill="#271F1D"/>
<path d="M89.9458 67.9896C92.0543 66.991 96.4982 65.9065 98.89 65.2681L112.302 61.7069L114.659 70.4457C110.502 72.4284 107.514 74.2757 105.861 78.9047C104.58 82.4983 104.812 86.4579 106.502 89.8781C109.833 96.6582 115.138 97.2613 121.79 97.0053C122.634 100.421 123.514 103.827 124.432 107.223C114.62 109.976 104.758 112.635 94.8803 115.143C92.1979 115.825 82.5409 118.676 80.5033 118.863C82.6454 118.03 86.8675 117.024 89.262 116.387L104.391 112.352C101.922 102.835 99.4018 93.3301 96.8318 83.8393C95.5327 79.0285 93.9068 72.3375 92.2837 67.7612C91.696 67.5362 90.6786 67.8545 89.9458 67.9896Z" fill="#372720"/>
<path d="M110.849 390.311L158.932 377.422C169.828 374.494 180.671 371.321 191.659 368.744C193.373 369.365 197.746 366.395 199.694 367.291C200.391 368.196 200.239 368.78 200.125 369.85C199.758 373.273 198.691 377.164 195.511 378.995C192.174 380.368 186.867 381.402 183.241 382.347L162.399 387.912L136.717 394.799C132.142 396.03 127.704 397.362 123.06 398.348C115.721 399.907 113.26 396.641 110.849 390.311Z" fill="#271F1D"/>
<path d="M191.659 368.744C205.229 364.858 218.545 361.457 232.16 357.818C232.591 360.649 233.016 364.878 231.151 367.226C227.712 371.552 219.426 372.839 214.322 374.165C208.069 375.841 201.798 377.451 195.511 378.996C198.691 377.164 199.758 373.273 200.125 369.85C200.24 368.78 200.392 368.197 199.695 367.292C197.747 366.396 193.373 369.365 191.659 368.744Z" fill="#372720"/>
<path d="M111.652 116.937C118.586 115.046 125.764 112.796 132.825 111.681C139.265 110.665 140.4 119.868 141.588 124.381L119.11 130.395C121.435 128.281 116.96 116.428 111.652 116.937Z" fill="#372720"/>
<path d="M115.068 76.7411C115.825 76.6414 115.489 76.5676 116.121 76.9159C116.801 78.689 119.889 89.5111 119.518 91.1402C118.525 91.7215 116.963 91.2381 115.847 90.9911C112.85 89.4288 110.796 86.6205 111.094 83.1388C111.348 80.1617 112.947 78.543 115.068 76.7411Z" fill="#372720"/>
<path d="M79.0419 216.263C80.312 215.981 81.3188 215.832 82.5542 216.267C84.1994 218.126 89.825 240.748 90.9211 244.836L103.675 292.392C105.832 300.236 107.938 308.095 109.993 315.966C110.61 318.409 111.307 321.225 111.796 323.727C111.967 324.605 111.098 325.38 110.49 326.033C109.501 326.159 107.573 326.469 106.878 325.749C106.005 324.844 105.082 321.465 104.713 320.159C102.712 313.092 100.898 305.957 99.0081 298.862L88.8048 260.717L82.0004 235.322C80.6484 230.311 79.1911 225.259 78.0425 220.204C77.6126 218.31 77.9619 217.888 79.0419 216.263Z" fill="#D69353" fill-opacity="0.68"/>
<path d="M111.43 336.171C112.408 335.99 113.685 335.805 114.567 336.403C116.109 337.45 122.091 358.918 121.973 361.731C121.924 362.886 121.174 363.556 120.426 364.36C119.402 364.516 118.167 364.663 117.297 363.967C115.477 362.51 110.283 342.553 109.982 339.068C109.871 337.785 110.627 337.057 111.43 336.171Z" fill="#D69353" fill-opacity="0.68"/>
<path d="M83.411 156.439C84.6851 156.221 85.575 156.472 86.7336 157.042C89.616 158.461 86.1459 162.582 84.925 164.121C82.5318 167.14 80.837 169.49 79.4439 173.075C78.1933 176.294 77.8776 181.125 75.9479 183.784C73.4589 184.461 71.0715 183.983 71.2616 180.852C71.8185 171.676 77.412 163.104 83.411 156.439Z" fill="#D69353" fill-opacity="0.68"/>

<g class="lines"><path d="M133.947 79.4239C133.786 74.8018 141.972 74.12 145.561 73.2052C150.532 71.9224 155.495 70.6059 160.448 69.257L188.487 61.7908C192.513 60.7129 196.051 59.4511 200.227 58.4346C202.225 58.9143 203.408 57.8321 205.234 58.8029C206.733 63.9324 192.594 64.2614 190.548 66.8713C190.513 67.0276 190.44 67.1848 190.461 67.3438C176.776 71.1528 163.055 74.8294 149.298 78.3739C145.706 79.2779 142.2 80.412 138.605 81.2875C136.099 81.8976 135.33 81.5324 133.947 79.4239Z" fill="url(#paint3_linear_464_3059)"/>
<path d="M131.033 68.9443C130.97 68.6721 130.795 67.7493 130.868 67.5184C132.086 63.6488 138.235 58.673 140.976 56.0163L151.947 45.2034C156.947 40.3372 161.95 35.1691 167.143 30.4897C168.022 29.6974 168.471 29.831 169.632 29.9636C172.27 31.8592 172.377 33.2844 170.078 35.672C161.6 44.4709 152.606 52.7862 144.029 61.4952C141.066 64.5036 138.058 67.7088 134.764 70.3554C133.022 70.0578 132.517 69.9494 131.033 68.9443Z" fill="#B46F42"/>
<path d="M137.301 92.0332C137.108 91.1423 136.603 89.2861 137.231 88.6379C139.859 85.9291 147.657 89.0639 150.671 89.8758L166.919 94.2127C173.085 95.8703 179.345 97.2562 185.475 99.0187C188.876 99.9966 191.318 100.806 189.741 104.78C188.631 105.379 188.276 105.532 186.973 105.331C182.516 104.644 178.267 103.378 173.929 102.152C163.117 99.0994 152.124 96.6706 141.271 93.78C139.823 93.3938 138.555 92.8391 137.301 92.0332Z" fill="#B46F42"/>
<path d="M200.227 58.4345C202.026 57.9924 205.033 56.9615 206.716 58.0306C207.258 58.3745 207.949 58.8875 208.174 59.5186C208.41 60.1805 208.164 60.8807 207.766 61.4227C205.705 64.2278 194.188 66.5081 190.461 67.3437C190.44 67.1848 190.513 67.0275 190.548 66.8713C192.595 64.2613 206.734 63.9323 205.235 58.8029C203.408 57.832 202.225 58.9142 200.227 58.4345Z" fill="#D69353" fill-opacity="0.68"/>
<path d="M158.822 80.5745C161.078 79.923 197.22 80.3798 200.142 81.1216C202.1 82.6133 201.213 84.3957 200.11 86.1283C196.686 86.5299 160.675 86.6995 159.073 85.9452C158.384 85.6215 157.765 84.8509 157.607 84.1136C157.331 82.834 158.174 81.5916 158.822 80.5745Z" fill="url(#paint4_linear_464_3059)"/>
<path d="M187.017 41.078C187.487 40.9644 187.862 40.9381 188.346 41.0282C189.185 41.1831 189.912 41.7036 190.329 42.4493C191.217 44.0492 190.556 45.6042 189.084 46.4768C178.299 52.8725 167.205 59.8043 156.146 65.6305C152.159 66.2981 151.036 61.9922 153.834 60.3097C164.693 53.7775 175.972 47.2597 187.017 41.078Z" fill="url(#paint5_linear_464_3059)"/></g>
</g>
</g>
<g class="sprayOn"><circle class="drop" style="animation-delay:0.000s" r="5"/><circle class="drop" style="animation-delay:0.045s" r="3.5"/><circle class="drop" style="animation-delay:0.090s" r="4.5"/><circle class="drop" style="animation-delay:0.135s" r="5"/><circle class="drop" style="animation-delay:0.180s" r="3.5"/><circle class="drop" style="animation-delay:0.225s" r="4.5"/><circle class="drop" style="animation-delay:0.270s" r="5"/><circle class="drop" style="animation-delay:0.315s" r="3.5"/><circle class="drop" style="animation-delay:0.360s" r="4.5"/><circle class="drop" style="animation-delay:0.405s" r="5"/><circle class="drop" style="animation-delay:0.450s" r="3.5"/><circle class="drop" style="animation-delay:0.495s" r="4.5"/><circle class="drop" style="animation-delay:0.540s" r="5"/><circle class="drop" style="animation-delay:0.585s" r="3.5"/></g>
<g class="no"><circle cx="250" cy="100" r="34" fill="#FFFFFF" stroke="#C4462E" stroke-width="8"/><path d="M226 76 L274 124" stroke="#C4462E" stroke-width="8" stroke-linecap="round"/></g>
<defs>
<clipPath id="handClip"><path d="M606 226 C600 280 596 330 590 392 L704 392 C696 330 686 280 678 226 Z"/><path d="M590 142 C592 128 690 124 696 140 C702 172 692 212 678 236 L606 236 C594 214 584 174 590 142 Z"/><rect x="-11.5" y="-74" width="23" height="85.5" rx="11.5" transform="translate(603 146) rotate(-24)" /><rect x="-12.0" y="-86" width="24" height="98.0" rx="12.0" transform="translate(630 136) rotate(-7)" /><rect x="-11.5" y="-80" width="23" height="91.5" rx="11.5" transform="translate(657 138) rotate(9)" /><rect x="-10.0" y="-60" width="20" height="70.0" rx="10.0" transform="translate(683 148) rotate(27)" /><rect x="-13.5" y="-66" width="27" height="79.5" rx="13.5" transform="translate(598 204) rotate(-64)" /></clipPath>
<linearGradient id="bearFur2" x1="400" y1="150" x2="400" y2="563" gradientUnits="userSpaceOnUse"><stop stop-color="#3A2A22"/><stop offset="1" stop-color="#1F1714"/></linearGradient>
<linearGradient id="paint0_linear_464_3059" x1="173.906" y1="270.596" x2="85.2939" y2="294.593" gradientUnits="userSpaceOnUse">
<stop stop-color="#25140E"/>
<stop offset="1" stop-color="#231F1D"/>
</linearGradient>
<linearGradient id="paint1_linear_464_3059" x1="147.269" y1="173.026" x2="60.787" y2="165.459" gradientUnits="userSpaceOnUse">
<stop stop-color="#2B150A"/>
<stop offset="1" stop-color="#2A201E"/>
</linearGradient>
<linearGradient id="paint2_linear_464_3059" x1="32.938" y1="97.6454" x2="76.411" y2="84.2255" gradientUnits="userSpaceOnUse">
<stop stop-color="#A85B25"/>
<stop offset="1" stop-color="#773529"/>
</linearGradient>
<linearGradient id="paint3_linear_464_3059" x1="134.128" y1="70.8078" x2="205.547" y2="68.2725" gradientUnits="userSpaceOnUse">
<stop stop-color="#954D32"/>
<stop offset="1" stop-color="#E09F58"/>
</linearGradient>
<linearGradient id="paint4_linear_464_3059" x1="158.389" y1="80.3882" x2="200.167" y2="86.5068" gradientUnits="userSpaceOnUse">
<stop stop-color="#9A5333"/>
<stop offset="1" stop-color="#D39255"/>
</linearGradient>
<linearGradient id="paint5_linear_464_3059" x1="151.636" y1="60.7473" x2="190.906" y2="45.8371" gradientUnits="userSpaceOnUse">
<stop stop-color="#9E5837"/>
<stop offset="1" stop-color="#D79556"/>
</linearGradient>
</defs>
</svg>
