<svg width="27" height="27" viewBox="0 0 27 27" fill="none" xmlns="http://www.w3.org/2000/svg">
<path d="M10.5466 14.7656C10.5466 14.9325 10.4971 15.0956 10.4044 15.2344C10.3117 15.3732 10.1799 15.4813 10.0257 15.5452C9.87153 15.609 9.70188 15.6257 9.53821 15.5932C9.37454 15.5606 9.22419 15.4803 9.10619 15.3623C8.98819 15.2443 8.90783 15.0939 8.87528 14.9302C8.84272 14.7666 8.85943 14.5969 8.92329 14.4427C8.98715 14.2886 9.0953 14.1568 9.23405 14.0641C9.37281 13.9714 9.53594 13.9219 9.70282 13.9219C9.92659 13.9219 10.1412 14.0108 10.2994 14.169C10.4577 14.3272 10.5466 14.5419 10.5466 14.7656ZM17.2966 15.6094C17.4634 15.6094 17.6266 15.5599 17.7653 15.4672C17.9041 15.3745 18.0122 15.2427 18.0761 15.0885C18.1399 14.9343 18.1567 14.7647 18.1241 14.601C18.0915 14.4374 18.0112 14.287 17.8932 14.169C17.7752 14.051 17.6248 13.9707 17.4612 13.9381C17.2975 13.9055 17.1279 13.9223 16.9737 13.9861C16.8195 14.05 16.6877 14.1581 16.595 14.2969C16.5023 14.4356 16.4528 14.5988 16.4528 14.7656C16.4528 14.9894 16.5417 15.204 16.6999 15.3623C16.8582 15.5205 17.0728 15.6094 17.2966 15.6094ZM24.1457 14.6486C23.9803 14.7248 23.8005 14.7647 23.6184 14.7656C23.4277 14.7652 23.2396 14.721 23.0687 14.6365C22.8978 14.5521 22.7484 14.4295 22.6322 14.2784L22.3591 13.9314V19.4063C22.3591 20.4133 21.959 21.379 21.247 22.0911C20.5349 22.8031 19.5692 23.2031 18.5622 23.2031H8.43719C7.4302 23.2031 6.46445 22.8031 5.75239 22.0911C5.04034 21.379 4.64031 20.4133 4.64031 19.4063V13.9314L4.37348 14.2763C4.25699 14.4278 4.10738 14.5507 3.93609 14.6355C3.7648 14.7203 3.57638 14.7648 3.38524 14.7656C3.20312 14.7647 3.02331 14.7248 2.85789 14.6486C2.59771 14.5344 2.38435 14.3347 2.25315 14.0827C2.12196 13.8306 2.08079 13.5413 2.13649 13.2627L3.86828 3.98146C3.90009 3.81191 3.96623 3.65066 4.06262 3.50761C4.15902 3.36455 4.28364 3.24271 4.42883 3.14957C4.57403 3.05643 4.73673 2.99395 4.90695 2.96597C5.07717 2.938 5.25131 2.94511 5.41867 2.98689H5.43555L11.0296 4.64064H15.9698L21.568 2.99532H21.5849C21.7523 2.95355 21.9264 2.94644 22.0967 2.97441C22.2669 3.00239 22.4296 3.06486 22.5748 3.15801C22.72 3.25115 22.8446 3.37299 22.941 3.51604C23.0374 3.6591 23.1035 3.82035 23.1353 3.98989L24.8671 13.2711C24.9209 13.5485 24.8788 13.8359 24.7477 14.0862C24.6166 14.3365 24.4044 14.5348 24.1457 14.6486ZM10.2565 5.29243L5.20352 3.80743C5.17166 3.80035 5.13912 3.79682 5.10649 3.79689C5.00834 3.79715 4.91335 3.83164 4.83789 3.89439C4.76243 3.95715 4.71121 4.04426 4.69305 4.14071L2.96125 13.422C2.94331 13.515 2.95718 13.6113 3.00064 13.6955C3.0441 13.7796 3.11461 13.8467 3.20083 13.8859C3.28705 13.9251 3.38396 13.9342 3.47595 13.9116C3.56794 13.8891 3.64967 13.8362 3.70797 13.7616L10.2565 5.29243ZM21.5153 12.8408L15.82 5.48439H11.1794L5.48406 12.8408V19.4063C5.48406 20.1895 5.7952 20.9406 6.34902 21.4944C6.90283 22.0483 7.65397 22.3594 8.43719 22.3594H13.0778V20.4251L11.5137 18.861C11.4346 18.7818 11.3901 18.6745 11.3901 18.5625C11.3901 18.4506 11.4346 18.3432 11.5137 18.264C11.5929 18.1849 11.7002 18.1404 11.8122 18.1404C11.9241 18.1404 12.0315 18.1849 12.1107 18.264L13.4997 19.6531L14.8887 18.264C14.9679 18.1849 15.0752 18.1404 15.1872 18.1404C15.2991 18.1404 15.4065 18.1849 15.4857 18.264C15.5648 18.3432 15.6093 18.4506 15.6093 18.5625C15.6093 18.6745 15.5648 18.7818 15.4857 18.861L13.9216 20.4251V22.3594H18.5622C19.3454 22.3594 20.0965 22.0483 20.6504 21.4944C21.2042 20.9406 21.5153 20.1895 21.5153 19.4063V12.8408ZM24.0381 13.4188L22.3063 4.13755C22.2959 4.08155 22.2741 4.02826 22.2425 3.98088C22.2109 3.9335 22.17 3.89302 22.1223 3.86187C22.0746 3.83073 22.0211 3.80957 21.965 3.79967C21.9089 3.78977 21.8513 3.79133 21.7959 3.80427L16.7429 5.29243L23.2935 13.7595C23.3522 13.8331 23.4339 13.885 23.5255 13.9069C23.6171 13.9288 23.7134 13.9194 23.799 13.8802C23.8846 13.841 23.9547 13.7743 23.9981 13.6907C24.0414 13.6071 24.0555 13.5114 24.0381 13.4188Z" fill="#C8622A"/>
</svg>
